# xmcd CD database file
#
# Track frame offsets:
#	183
#	11445
#	21200
#	33073
#	42200
#	52158
#	61625
#	70060
#	79973
#	90570
#	102450
#	113245
#	122845
#	132313
#	144370
#	155390
#
# Disc length: 2206 seconds
#
# Revision: 3
# Processed by: cddbd v1.4PL0 Copyright (c) Steve Scherf et al.
# Submitted via: CDex 1.40Beta9
#
DISCID=cd089c10
DTITLE=Little Richard - Greatest Hits
DYEAR=1987
DGENRE=Blues
TTITLE0=Lucille
TTITLE1=Baby face
TTITLE2=She's got it
TTITLE3=Jenny Jenny
TTITLE4=Keep a knockin'
TTITLE5=Long tall Sally
TTITLE6=Oh my soul
TTITLE7=Ready teddy
TTITLE8=Rip it up
TTITLE9=Slippin' and Slidin'
TTITLE10=Tutti Frutti
TTITLE11=Good golly Miss Molly
TTITLE12=By the light of a silvery moon
TTITLE13=True fine mama
TTITLE14=Send me some lovin'
TTITLE15=Miss Ann
EXTD=YEAR: 1987
EXTT0=
EXTT1=
EXTT2=
EXTT3=
EXTT4=
EXTT5=
EXTT6=
EXTT7=
EXTT8=
EXTT9=
EXTT10=
EXTT11=
EXTT12=
EXTT13=
EXTT14=
EXTT15=
PLAYORDER=
